# Blender v2.79 (sub 0) OBJ File: 'nuvem-3.blend'
# www.blender.org
mtllib nuvem-3.mtl
o nuvem3_Cube.001
v 1.208917 9.243086 2.676251
v 2.143894 9.180542 2.452187
v 1.554559 9.381808 2.422454
v 2.602737 9.290893 8.871748
v 3.215115 9.985165 7.513725
v 1.899446 9.206806 8.995325
v 2.435583 8.888338 8.557568
v 1.765427 8.773362 8.381720
v 2.030311 8.248482 6.611005
v 1.684451 10.111029 8.955912
v 2.286094 9.783048 9.104947
v 1.081014 10.602467 3.820673
v 2.260655 11.391174 4.991064
v 1.186914 10.659012 4.376025
v 2.256278 8.423784 3.430236
v 0.805068 8.618661 4.522789
v 0.948131 8.154613 5.511347
v 3.186174 9.094131 4.621741
v 3.273788 10.284712 4.561379
v 1.281125 9.240602 8.619914
v 2.873734 8.766842 2.908863
v 2.602479 11.639221 5.777968
v 2.296508 11.424274 6.428421
v 2.832984 11.429679 5.433992
v 3.230489 10.539363 6.960396
v 3.491838 9.558362 3.709151
v 3.365677 8.790569 3.750513
v 1.687183 10.767673 3.599174
v 2.367383 10.671587 4.380063
v 2.015075 10.420905 2.777791
v 1.537076 10.737079 8.173448
v 1.931302 10.531929 8.644188
v 1.130918 10.403847 8.232997
v 2.300907 10.597335 7.405895
v 1.104616 10.554700 7.390354
v 2.590490 10.508377 8.019136
v 2.567219 10.102952 8.804206
v 4.126365 9.414294 6.242554
v 4.053454 9.104163 5.568166
v 4.049542 9.124456 6.504037
v 3.162865 9.052179 7.364960
v 3.945999 8.757230 5.958980
v -0.262581 9.262640 5.751670
v -0.133492 9.621669 6.520303
v 0.453259 9.649976 7.241945
v -0.092242 9.980029 5.878334
v -0.152241 9.558989 5.140568
v -0.092575 8.860468 5.492810
v 0.299524 8.620350 6.441589
v -0.127466 9.053618 6.358500
v 0.995360 11.489745 5.633320
v 0.425472 10.532753 6.135756
v 0.566819 10.971442 6.348315
v 0.564306 11.009556 5.372270
v 0.579181 10.617953 4.827377
v 0.995436 11.330325 6.358791
v 0.749136 10.719557 6.889886
v 0.836942 11.150970 4.977900
v 3.231821 10.260658 3.994840
v 2.879083 9.340970 2.808741
v 1.844077 8.315234 4.713353
v 2.807148 8.402913 6.913003
v 2.915800 9.774041 3.012635
v 2.486420 10.642435 3.730985
v 1.684359 10.443362 2.775581
v 3.029162 8.417478 3.796341
v 1.422428 8.800729 2.843517
v 1.384078 10.219849 2.850182
v 0.495095 9.206495 4.439754
v 0.605193 10.131436 4.288794
v 2.833408 8.495655 4.776331
v 1.977448 8.037032 5.367911
vn -0.6357 0.2444 -0.7322
vn 0.1386 0.2649 -0.9543
vn 0.3713 0.2716 -0.8879
vn 0.8939 0.0758 0.4419
vn -0.0119 -0.8155 0.5787
vn 0.2004 -0.3112 0.9290
vn -0.5205 -0.0867 0.8495
vn -0.3945 -0.7077 0.5861
vn 0.1482 0.5310 0.8343
vn -0.8129 0.4087 -0.4150
vn -0.6752 0.7356 0.0539
vn 0.4567 0.6142 -0.6436
vn -0.1177 0.7343 -0.6686
vn -0.2494 -0.9549 -0.1609
vn 0.9581 -0.1441 0.2476
vn 0.8499 -0.4181 0.3208
vn 0.6321 -0.5208 -0.5737
vn -0.8465 0.0664 0.5283
vn -0.6730 -0.5738 0.4667
vn 0.1760 -0.9051 -0.3871
vn 0.6664 -0.6466 -0.3713
vn 0.2374 0.8921 -0.3844
vn -0.0645 0.9594 -0.2744
vn -0.1128 0.9580 0.2635
vn -0.0879 0.6736 0.7339
vn 0.3360 0.7198 0.6074
vn 0.1573 0.9874 -0.0155
vn -0.0110 0.9912 0.1316
vn 0.5868 0.6344 -0.5031
vn 0.2371 0.9475 0.2144
vn -0.7668 0.1113 0.6322
vn -0.4482 0.6550 0.6084
vn -0.0321 0.9772 -0.2099
vn 0.2174 0.9753 0.0388
vn 0.9617 -0.2734 0.0217
vn 0.8369 0.2273 0.4979
vn 0.5511 -0.6586 0.5123
vn 0.8592 0.4753 -0.1896
vn 0.3312 -0.9425 0.0453
vn -0.9786 -0.0660 0.1952
vn -0.9735 0.2205 0.0605
vn -0.9689 0.2404 -0.0584
vn -0.8317 0.5086 -0.2226
vn -0.7623 0.5848 0.2775
vn -0.7699 -0.3385 -0.5409
vn -0.5614 -0.8272 0.0227
vn -0.9059 -0.4197 0.0571
vn -0.6694 0.7135 -0.2070
vn -0.9537 0.3004 0.0142
vn -0.6355 0.7541 0.1658
vn 0.7466 0.4686 -0.4723
vn 0.4585 -0.1568 -0.8748
vn 0.4613 0.3456 -0.8172
vn -0.0883 -0.9814 0.1707
vn -0.2036 -0.9153 -0.3475
vn 0.0655 0.9284 -0.3658
vn 0.8337 -0.1024 -0.5426
vn 0.7397 -0.6428 0.1990
vn -0.3840 -0.4829 -0.7870
vn 0.0137 -0.7300 -0.6833
vn 0.0050 -0.8381 -0.5455
vn -0.9262 0.0492 -0.3739
vn -0.7942 -0.5089 -0.3320
vn -0.8608 0.2348 -0.4516
vn -0.4521 0.3308 -0.8284
vn 0.0276 0.3125 -0.9495
vn 0.7026 -0.6236 0.3428
vn 0.9259 -0.1095 0.3615
vn 0.6778 0.0903 0.7297
vn 0.7260 -0.5844 0.3625
vn 0.2061 -0.6538 0.7281
vn -0.2491 -0.0170 0.9683
vn 0.0735 -0.9519 0.2976
vn 0.0859 -0.9516 0.2949
vn -0.5028 -0.7448 0.4387
vn 0.1396 0.6104 0.7797
vn -0.4873 0.6362 -0.5982
vn -0.2779 0.9596 -0.0447
vn -0.6027 0.6600 -0.4484
vn -0.0043 0.6469 -0.7626
vn 0.4055 0.6477 -0.6450
vn -0.5487 0.4621 -0.6967
vn -0.1467 0.8928 -0.4260
vn -0.2800 -0.9379 -0.2046
vn 0.0276 -0.9968 -0.0755
vn 0.1713 -0.9788 0.1123
vn -0.5327 -0.7931 -0.2952
vn 0.9549 -0.0555 0.2916
vn 0.7349 -0.0882 -0.6725
vn -0.8756 0.3513 0.3315
vn -0.8496 0.0494 0.5251
vn -0.0817 0.9734 0.2139
vn -0.2512 0.8521 0.4591
vn -0.0356 0.7629 0.6456
vn 0.4548 0.7596 0.4650
vn 0.7792 0.6081 0.1518
vn -0.3611 0.8681 -0.3406
vn 0.3874 0.9214 0.0297
vn 0.5275 0.7321 -0.4310
vn -0.3841 0.6843 0.6199
vn -0.6124 0.7746 0.1578
vn 0.2132 0.9628 0.1657
vn 0.1065 0.9899 0.0933
vn 0.7474 0.5810 0.3222
vn 0.7584 0.4498 0.4716
vn 0.4307 0.7966 0.4242
vn 0.9651 -0.2620 -0.0068
vn 0.6949 -0.1510 0.7030
vn 0.8222 0.3906 0.4140
vn 0.8127 0.5700 0.1208
vn 0.8930 0.3645 -0.2642
vn 0.6098 -0.6685 -0.4258
vn 0.5551 -0.7349 0.3897
vn -0.9362 -0.2187 -0.2751
vn -0.7224 0.3882 0.5722
vn -0.7588 -0.1859 0.6242
vn -0.7200 0.6928 -0.0395
vn -0.7954 0.5723 0.1996
vn -0.7085 -0.4503 -0.5434
vn -0.7398 -0.0217 -0.6725
vn -0.7990 0.4265 -0.4239
vn -0.7185 -0.6844 0.1237
vn -0.7513 0.6594 0.0277
vn -0.9227 0.1198 0.3664
vn -0.9876 0.1136 -0.1086
vn -0.5643 0.6594 0.4967
vn -0.7903 0.4871 -0.3717
vn 0.9228 0.3760 -0.0843
vn 0.7844 0.2085 -0.5842
vn -0.1589 -0.9024 -0.4006
vn 0.1887 -0.8894 -0.4164
vn -0.1770 -0.9505 0.2553
vn -0.2680 -0.9232 0.2753
vn 0.3804 -0.9115 -0.1563
vn 0.1319 -0.9781 0.1608
vn 0.4749 0.8771 -0.0724
vn 0.1972 0.9289 -0.3134
vn 0.8533 -0.1668 -0.4940
vn -0.1493 -0.5577 -0.8165
vn -0.8079 -0.4752 -0.3485
usemtl nuvem
s off
f 68//1 3//1 1//1
f 3//2 30//2 2//2
f 30//3 60//3 2//3
f 5//4 37//4 4//4
f 8//5 7//5 6//5
f 4//6 11//6 6//6
f 10//7 20//7 6//7
f 20//8 8//8 6//8
f 37//9 32//9 10//9
f 68//10 70//10 12//10
f 70//11 14//11 12//11
f 24//12 29//12 13//12
f 14//13 58//13 13//13
f 61//14 16//14 15//14
f 27//15 26//15 18//15
f 71//16 27//16 18//16
f 71//17 18//17 39//17
f 33//18 45//18 20//18
f 50//19 49//19 20//19
f 66//20 15//20 21//20
f 27//21 66//21 21//21
f 24//22 13//22 22//22
f 13//23 51//23 22//23
f 51//24 23//24 22//24
f 56//25 57//25 23//25
f 34//26 25//26 23//26
f 64//27 28//27 29//27
f 28//28 14//28 29//28
f 59//29 63//29 30//29
f 32//30 36//30 31//30
f 20//31 10//31 33//31
f 10//32 31//32 33//32
f 35//33 31//33 34//33
f 31//34 36//34 34//34
f 42//35 39//35 38//35
f 38//36 5//36 40//36
f 41//37 62//37 40//37
f 19//38 24//38 38//38
f 62//39 72//39 42//39
f 50//40 44//40 43//40
f 44//41 46//41 43//41
f 46//42 47//42 43//42
f 55//43 47//43 46//43
f 44//44 52//44 46//44
f 69//45 48//45 47//45
f 17//46 49//46 48//46
f 50//47 43//47 48//47
f 58//48 54//48 51//48
f 53//49 54//49 52//49
f 51//50 53//50 56//50
f 63//51 59//51 26//51
f 21//52 2//52 60//52
f 30//53 63//53 60//53
f 9//54 17//54 72//54
f 16//55 61//55 72//55
f 65//56 28//56 30//56
f 26//57 21//57 60//57
f 27//58 71//58 66//58
f 1//59 3//59 67//59
f 2//60 21//60 67//60
f 21//61 15//61 67//61
f 70//62 1//62 69//62
f 1//63 67//63 69//63
f 1//64 70//64 68//64
f 68//65 65//65 3//65
f 3//66 65//66 30//66
f 7//67 62//67 41//67
f 41//68 5//68 4//68
f 37//69 11//69 4//69
f 4//70 7//70 41//70
f 6//71 7//71 4//71
f 11//72 10//72 6//72
f 9//73 62//73 7//73
f 9//74 7//74 8//74
f 8//75 20//75 49//75
f 11//76 37//76 10//76
f 70//77 55//77 14//77
f 14//78 28//78 12//78
f 12//79 65//79 68//79
f 13//80 29//80 14//80
f 24//81 19//81 29//81
f 14//82 55//82 58//82
f 58//83 51//83 13//83
f 16//84 67//84 15//84
f 15//85 66//85 61//85
f 66//86 71//86 61//86
f 48//87 16//87 17//87
f 18//88 26//88 19//88
f 18//89 19//89 39//89
f 33//90 57//90 45//90
f 45//91 50//91 20//91
f 51//92 56//92 23//92
f 23//93 57//93 35//93
f 35//94 34//94 23//94
f 25//95 22//95 23//95
f 24//96 22//96 25//96
f 28//97 65//97 12//97
f 29//98 19//98 64//98
f 64//99 59//99 30//99
f 31//100 10//100 32//100
f 31//101 35//101 33//101
f 35//102 57//102 33//102
f 36//103 25//103 34//103
f 37//104 5//104 36//104
f 5//105 25//105 36//105
f 36//106 32//106 37//106
f 38//107 40//107 42//107
f 40//108 5//108 41//108
f 38//109 25//109 5//109
f 24//110 25//110 38//110
f 38//111 39//111 19//111
f 71//112 39//112 42//112
f 42//113 40//113 62//113
f 47//114 48//114 43//114
f 45//115 57//115 44//115
f 44//116 50//116 45//116
f 52//117 55//117 46//117
f 44//118 57//118 52//118
f 69//119 16//119 48//119
f 47//120 70//120 69//120
f 47//121 55//121 70//121
f 49//122 50//122 48//122
f 54//123 53//123 51//123
f 52//124 57//124 53//124
f 54//125 55//125 52//125
f 56//126 53//126 57//126
f 58//127 55//127 54//127
f 59//128 19//128 26//128
f 26//129 60//129 63//129
f 17//130 16//130 72//130
f 61//131 71//131 72//131
f 9//132 8//132 17//132
f 8//133 49//133 17//133
f 72//134 71//134 42//134
f 62//135 9//135 72//135
f 64//136 19//136 59//136
f 28//137 64//137 30//137
f 26//138 27//138 21//138
f 67//139 3//139 2//139
f 69//140 67//140 16//140
